<?xml version="1.0" encoding="UTF-8" standalone="no"?>
<svg width="180px" height="41px" viewBox="0 0 180 41" version="1.1" xmlns="http://www.w3.org/2000/svg" xmlns:xlink="http://www.w3.org/1999/xlink">
    <defs></defs>
    <g id="Landing-Page" stroke="none" stroke-width="1" fill="none" fill-rule="evenodd">
        <g id="Logos" transform="translate(-680.000000, -73.000000)">
            <g id="Logo-Invert" transform="translate(680.000000, 73.000000)">
                <path d="M16.6921369,7.63636364 L16.6921369,17.4351782 L7.31054023,17.4351782 L7.31054023,7.63636364 L0,7.63636364 L0,33.8181818 L7.31054023,33.8181818 L7.31054023,23.8689474 L16.6921369,23.8689474 L16.6921369,33.8181818 L24,33.8181818 L24,7.63636364 L16.6921369,7.63636364" id="Fill-1" fill="#3B3254"></path>
                <path d="M35.2102283,7.63636364 L24,33.8181818 L31.6739402,33.8181818 L33.5566107,29.1397535 L43.7105764,29.1397535 L45.6290615,33.8181818 L53.4545455,33.8181818 L42.2437826,7.63636364 L35.2102283,7.63636364 L35.2102283,7.63636364 Z M35.6985359,23.533559 L38.6724818,16.0859178 L41.6060694,23.533559 L35.6985359,23.533559 L35.6985359,23.533559 Z" id="Fill-2" fill="#3B3254"></path>
                <path d="M75.1455037,21.6615499 C76.1130769,20.341523 76.5971283,18.6709594 76.5971283,16.6487962 L76.5971283,16.5749151 C76.5971283,14.0071478 75.8270947,11.9735569 74.2846442,10.4794576 C73.4158408,9.5817224 72.2870053,8.88304095 70.8944307,8.38367905 C69.5052985,7.88617747 67.8023802,7.63636364 65.7909718,7.63636364 L53.4545455,7.63636364 L53.4545455,33.8181818 L60.6851297,33.8181818 L60.6851297,25.8879215 L63.8521181,25.8879215 L69.1073065,33.8181818 L77.4545455,33.8181818 L71.2317838,24.69227 C72.8698265,23.9935886 74.1768713,22.9826398 75.1455037,21.6615499 L75.1455037,21.6615499 Z M69.3294724,17.0971323 C69.3294724,18.0461591 68.993708,18.801713 68.3237682,19.3619338 C67.6525043,19.9208258 66.6963174,20.2046569 65.4554722,20.2046569 L60.6851297,20.2046569 L60.6851297,13.9218391 L65.4173413,13.9218391 C66.6335602,13.9218391 67.5900119,14.1777654 68.2880204,14.6858973 C68.9825865,15.1972184 69.3294724,15.9780195 69.3294724,17.0237827 L69.3294724,17.0971323 L69.3294724,17.0971323 Z" id="Fill-3" fill="#3B3254"></path>
                <path d="M131.235361,7.63636364 L120.111202,33.8181818 L109.936141,18.8947288 L119.891275,7.63636364 L111.251429,7.63636364 L102.200021,18.2563748 L102.200021,7.63636364 L94.9090909,7.63636364 L94.9090909,33.8181818 L102.200021,33.8181818 L102.200021,27.0495558 L104.864759,24.0927168 L111.475892,33.8181818 L127.701594,33.8181818 L129.583779,29.1397535 L139.721473,29.1397535 L141.638622,33.8181818 L149.454545,33.8181818 L138.261259,7.63636364 L131.235361,7.63636364 L131.235361,7.63636364 Z M131.723523,23.533559 L134.690659,16.0859178 L137.622298,23.533559 L131.723523,23.533559 L131.723523,23.533559 Z" id="Fill-4" fill="#3B3254"></path>
                <path d="M149.454545,33.8181818 L157.090909,33.8181818 L157.090909,7.63636364 L149.454545,7.63636364 L149.454545,33.8181818 Z" id="Fill-5" fill="#3B3254"></path>
                <path d="M149.454545,1.70530257e-13 L157.090909,1.70530257e-13 L157.090909,5.45454545 L149.454545,5.45454545 L149.454545,1.70530257e-13 Z" id="Fill-6" fill="#3B3254"></path>
                <path d="M179.322254,22.7857083 C178.871756,21.9120809 178.222782,21.1689585 177.375333,20.5552622 C176.523622,19.9391393 175.493149,19.41712 174.280187,18.9848902 C173.066958,18.5583228 171.711999,18.1805599 170.211047,17.8610388 C169.311116,17.6650119 168.565702,17.4749171 167.981732,17.2904846 C167.391901,17.1055129 166.930746,16.9213501 166.595337,16.7371873 C166.25673,16.5524853 166.019892,16.3510657 165.880826,16.1261875 C165.743359,15.9069718 165.675691,15.6478496 165.675691,15.3536745 L165.675691,15.2789847 C165.675691,14.8119716 165.894413,14.4201875 166.33319,14.1030932 C166.768503,13.7803364 167.42387,13.6188232 168.298226,13.6188232 C169.473625,13.6188232 170.694847,13.8383086 171.953632,14.2646064 C173.217479,14.6968362 174.448025,15.3307552 175.649532,16.172026 L179.285756,11.0915057 C177.858334,9.95336346 176.269733,9.09160023 174.505569,8.50675529 C172.745135,7.92784238 170.737739,7.63636364 168.485246,7.63636364 C166.914495,7.63636364 165.501992,7.8380529 164.249068,8.24466709 C163.002004,8.64804563 161.931837,9.22183541 161.042296,9.9592955 C160.157017,10.6970252 159.482468,11.5671472 159.021313,12.5758632 C158.557227,13.5843095 158.327049,14.6911738 158.327049,15.895647 L158.327049,15.9706064 C158.327049,17.2991131 158.582803,18.4111004 159.095641,19.307647 C159.607947,20.2066202 160.308071,20.956214 161.197612,21.5580462 C162.079428,22.1604176 163.127483,22.656282 164.325794,23.033236 C165.524637,23.4142346 166.82285,23.7653033 168.223898,24.085903 C169.123563,24.2811209 169.858854,24.4720247 170.419113,24.6561875 C170.980172,24.8408895 171.429604,25.0309844 171.768744,25.2264719 C172.10735,25.4224988 172.334864,25.6303898 172.460343,25.8377414 C172.586355,26.0448235 172.648162,26.2869584 172.648162,26.5579447 L172.648162,26.630747 C172.648162,27.1942905 172.392675,27.635688 171.879837,27.9414575 C171.367531,28.2474967 170.624248,28.4025386 169.650255,28.4025386 C166.600931,28.4025386 163.765268,27.3649714 161.139802,25.2954993 L157.090909,30.0737553 C158.713876,31.512544 160.58194,32.592714 162.695101,33.3102209 C164.362558,33.8780787 166.125657,34.1544577 167.94177,34.2752555 C168.101616,34.3043764 168.24601,34.3504845 168.419709,34.3734038 L168.419709,35.8256743 L168.798277,35.8256743 C169.576992,35.8256743 169.968881,36.140342 169.968881,36.7677897 C169.968881,37.3359171 169.690216,37.6211942 169.135552,37.6211942 C168.790551,37.6211942 168.551848,37.4222013 168.419709,37.0217888 L166.349973,37.0217888 C166.742927,38.5228638 167.676693,39.2727273 169.149139,39.2727273 C169.957692,39.2727273 170.649824,39.0103694 171.227666,38.4824181 C171.802578,37.9552757 172.092964,37.3299851 172.092964,36.6097818 C172.092964,36.0217012 171.879837,35.5611594 171.449852,35.2262689 C171.022797,34.895423 170.561109,34.7274385 170.065854,34.7274385 L170.065854,34.4599576 C170.915168,34.4459364 171.671771,34.3043764 172.388945,34.0937891 C172.845038,34.0104709 173.311788,33.9382079 173.735912,33.8144441 C175.034659,33.4337151 176.147451,32.8804178 177.073757,32.1545522 C177.998199,31.4281473 178.71564,30.5523629 179.231408,29.5177616 C179.740783,28.4823515 180,27.3043028 180,25.9763354 L180,25.9011064 C180,24.6960939 179.772486,23.6585266 179.322254,22.7857083" id="Fill-7" fill="#3B3254"></path>
                <path d="M83.6762554,7.63636364 L79.6363636,33.9590977 L85.6745969,40.3636364 L91.6363636,33.9590977 L87.6477987,7.63636364" id="Fill-8" fill="#FF6D00"></path>
                <path d="M88.6119912,5.45454545 L89.4545455,1.70530257e-13 L81.8181818,1.70530257e-13 L82.6763855,5.45454545 L88.6119912,5.45454545" id="Fill-9" fill="#FF6D00"></path>
            </g>
        </g>
    </g>
</svg>